<svg xmlns="http://www.w3.org/2000/svg" xmlns:xlink="http://www.w3.org/1999/xlink" width="200" zoomAndPan="magnify" viewBox="0 0 150 149.999998" height="200" preserveAspectRatio="xMidYMid meet" version="1.0"><defs><clipPath id="60c93f5bbb"><path d="M 64.667969 64.667969 L 85.332031 64.667969 L 85.332031 85.332031 L 64.667969 85.332031 Z M 64.667969 64.667969 " clip-rule="nonzero"/></clipPath><clipPath id="3d9e0d3886"><path d="M 75 64.667969 C 69.292969 64.667969 64.667969 69.292969 64.667969 75 C 64.667969 80.707031 69.292969 85.332031 75 85.332031 C 80.707031 85.332031 85.332031 80.707031 85.332031 75 C 85.332031 69.292969 80.707031 64.667969 75 64.667969 Z M 75 64.667969 " clip-rule="nonzero"/></clipPath><clipPath id="c332c33f12"><path d="M 70.929688 70.929688 L 79.066406 70.929688 L 79.066406 79.066406 L 70.929688 79.066406 Z M 70.929688 70.929688 " clip-rule="nonzero"/></clipPath><clipPath id="066e8622ab"><path d="M 75 79.066406 C 77.246094 79.066406 79.066406 77.246094 79.066406 75 C 79.066406 72.75 77.246094 70.929688 75 70.929688 C 72.75 70.929688 70.929688 72.75 70.929688 75 C 70.929688 77.246094 72.75 79.066406 75 79.066406 Z M 75 79.066406 " clip-rule="nonzero"/></clipPath><clipPath id="ecfc78632c"><path d="M 70.933594 70.933594 L 79.066406 70.933594 L 79.066406 79.066406 L 70.933594 79.066406 Z M 70.933594 70.933594 " clip-rule="nonzero"/></clipPath><clipPath id="de14adb671"><path d="M 75 79.066406 C 77.246094 79.066406 79.066406 77.246094 79.066406 75 C 79.066406 72.753906 77.246094 70.933594 75 70.933594 C 72.753906 70.933594 70.933594 72.753906 70.933594 75 C 70.933594 77.246094 72.753906 79.066406 75 79.066406 Z M 75 79.066406 " clip-rule="nonzero"/></clipPath><clipPath id="35e28e4e36"><path d="M 72.640625 72.640625 L 77.339844 72.640625 L 77.339844 77.339844 L 72.640625 77.339844 Z M 72.640625 72.640625 " clip-rule="nonzero"/></clipPath><clipPath id="34aea9272a"><path d="M 74.988281 77.339844 C 76.285156 77.339844 77.339844 76.285156 77.339844 74.988281 C 77.339844 73.691406 76.285156 72.640625 74.988281 72.640625 C 73.691406 72.640625 72.640625 73.691406 72.640625 74.988281 C 72.640625 76.285156 73.691406 77.339844 74.988281 77.339844 Z M 74.988281 77.339844 " clip-rule="nonzero"/></clipPath></defs><g clip-path="url(#60c93f5bbb)"><g clip-path="url(#3d9e0d3886)"><path fill="#737373" d="M 64.667969 64.667969 L 85.332031 64.667969 L 85.332031 85.332031 L 64.667969 85.332031 Z M 64.667969 64.667969 " fill-opacity="1" fill-rule="nonzero"/></g></g><path stroke-linecap="butt" transform="matrix(0.75, 0, 0, 0.75, 62.475766, 73.561894)" fill="none" stroke-linejoin="miter" d="M 0.00106253 1.500808 L 33.396898 1.500808 " stroke="#ffffff" stroke-width="3" stroke-opacity="1" stroke-miterlimit="4"/><g clip-path="url(#c332c33f12)"><g clip-path="url(#066e8622ab)"><path fill="#ffffff" d="M 79.066406 79.066406 L 70.929688 79.066406 L 70.929688 70.929688 L 79.066406 70.929688 Z M 79.066406 79.066406 " fill-opacity="1" fill-rule="nonzero"/></g></g><g clip-path="url(#ecfc78632c)"><g clip-path="url(#de14adb671)"><path stroke-linecap="butt" transform="matrix(-0.75, 0, 0, -0.75, 79.065457, 79.065458)" fill="none" stroke-linejoin="miter" d="M 5.42061 -0.00126408 C 2.425818 -0.00126408 -0.00126508 2.425819 -0.00126508 5.420611 C -0.00126508 8.415403 2.425818 10.842487 5.42061 10.842487 C 8.415402 10.842487 10.842486 8.415403 10.842486 5.420611 C 10.842486 2.425819 8.415402 -0.00126408 5.42061 -0.00126408 Z M 5.42061 -0.00126408 " stroke="#ffffff" stroke-width="6" stroke-opacity="1" stroke-miterlimit="4"/></g></g><g clip-path="url(#35e28e4e36)"><g clip-path="url(#34aea9272a)"><path fill="#737373" d="M 77.339844 77.339844 L 72.640625 77.339844 L 72.640625 72.640625 L 77.339844 72.640625 Z M 77.339844 77.339844 " fill-opacity="1" fill-rule="nonzero"/></g></g></svg>