<svg xmlns="http://www.w3.org/2000/svg" xmlns:xlink="http://www.w3.org/1999/xlink" width="200" zoomAndPan="magnify" viewBox="0 0 150 149.999998" height="200" preserveAspectRatio="xMidYMid meet" version="1.0"><defs><clipPath id="f8371b7294"><path d="M 23.4375 14.511719 L 126.5625 14.511719 L 126.5625 135.765625 L 23.4375 135.765625 Z M 23.4375 14.511719 " clip-rule="nonzero"/></clipPath><clipPath id="075122f9bb"><path d="M 36.1875 14.511719 L 113.8125 14.511719 C 120.855469 14.511719 126.5625 20.21875 126.5625 27.261719 L 126.5625 122.738281 C 126.5625 129.78125 120.855469 135.488281 113.8125 135.488281 L 36.1875 135.488281 C 29.144531 135.488281 23.4375 129.78125 23.4375 122.738281 L 23.4375 27.261719 C 23.4375 20.21875 29.144531 14.511719 36.1875 14.511719 Z M 36.1875 14.511719 " clip-rule="nonzero"/></clipPath><clipPath id="0911f160ea"><path d="M 61 23.558594 L 89 23.558594 L 89 52 L 61 52 Z M 61 23.558594 " clip-rule="nonzero"/></clipPath><clipPath id="70112c576e"><path d="M 52.335938 51 L 97.335938 51 L 97.335938 76.058594 L 52.335938 76.058594 Z M 52.335938 51 " clip-rule="nonzero"/></clipPath></defs><g clip-path="url(#f8371b7294)"><g clip-path="url(#075122f9bb)"><path fill="#bfe4ff" d="M 23.4375 14.511719 L 126.5625 14.511719 L 126.5625 135.363281 L 23.4375 135.363281 Z M 23.4375 14.511719 " fill-opacity="1" fill-rule="nonzero"/></g></g><g clip-path="url(#0911f160ea)"><path fill="#3967ab" d="M 88.667969 37.28125 C 88.667969 38.183594 88.578125 39.074219 88.402344 39.960938 C 88.226562 40.84375 87.964844 41.703125 87.621094 42.535156 C 87.277344 43.367188 86.855469 44.15625 86.351562 44.90625 C 85.851562 45.65625 85.285156 46.351562 84.644531 46.988281 C 84.007812 47.625 83.316406 48.195312 82.566406 48.695312 C 81.816406 49.195312 81.027344 49.617188 80.191406 49.960938 C 79.359375 50.308594 78.5 50.566406 77.617188 50.742188 C 76.734375 50.917969 75.839844 51.007812 74.941406 51.007812 C 74.039062 51.007812 73.144531 50.917969 72.261719 50.742188 C 71.378906 50.566406 70.519531 50.308594 69.6875 49.960938 C 68.855469 49.617188 68.0625 49.195312 67.3125 48.695312 C 66.566406 48.195312 65.871094 47.625 65.234375 46.988281 C 64.597656 46.351562 64.027344 45.65625 63.527344 44.90625 C 63.027344 44.15625 62.605469 43.367188 62.257812 42.535156 C 61.914062 41.703125 61.652344 40.84375 61.476562 39.960938 C 61.300781 39.074219 61.214844 38.183594 61.214844 37.28125 C 61.214844 36.378906 61.300781 35.488281 61.476562 34.601562 C 61.652344 33.71875 61.914062 32.859375 62.257812 32.027344 C 62.605469 31.195312 63.027344 30.40625 63.527344 29.65625 C 64.027344 28.90625 64.597656 28.210938 65.234375 27.574219 C 65.871094 26.9375 66.566406 26.371094 67.3125 25.867188 C 68.0625 25.367188 68.855469 24.945312 69.6875 24.601562 C 70.519531 24.253906 71.378906 23.996094 72.261719 23.820312 C 73.144531 23.644531 74.039062 23.554688 74.941406 23.554688 C 75.839844 23.554688 76.734375 23.644531 77.617188 23.820312 C 78.5 23.996094 79.359375 24.253906 80.191406 24.601562 C 81.027344 24.945312 81.816406 25.367188 82.566406 25.867188 C 83.316406 26.371094 84.007812 26.9375 84.644531 27.574219 C 85.285156 28.210938 85.851562 28.90625 86.351562 29.65625 C 86.855469 30.40625 87.277344 31.195312 87.621094 32.027344 C 87.964844 32.859375 88.226562 33.71875 88.402344 34.601562 C 88.578125 35.488281 88.667969 36.378906 88.667969 37.28125 Z M 88.667969 37.28125 " fill-opacity="1" fill-rule="nonzero"/></g><g clip-path="url(#70112c576e)"><path fill="#3967ab" d="M 74.941406 51.957031 C 73.867188 51.957031 72.800781 52.027344 71.734375 52.167969 C 70.671875 52.3125 69.625 52.523438 68.589844 52.800781 C 67.550781 53.082031 66.539062 53.429688 65.550781 53.84375 C 64.5625 54.253906 63.601562 54.734375 62.675781 55.273438 C 61.75 55.8125 60.863281 56.414062 60.015625 57.070312 C 59.167969 57.726562 58.367188 58.4375 57.613281 59.203125 C 56.859375 59.964844 56.160156 60.773438 55.515625 61.632812 C 54.867188 62.488281 54.28125 63.382812 53.753906 64.316406 C 53.582031 64.621094 53.429688 64.933594 53.296875 65.257812 C 53.167969 65.582031 53.058594 65.914062 52.96875 66.253906 C 52.882812 66.59375 52.816406 66.9375 52.773438 67.285156 C 52.730469 67.632812 52.710938 67.980469 52.714844 68.328125 C 52.714844 68.679688 52.742188 69.027344 52.789062 69.375 C 52.835938 69.722656 52.90625 70.0625 53 70.402344 C 53.09375 70.738281 53.207031 71.070312 53.34375 71.390625 C 53.480469 71.714844 53.636719 72.027344 53.8125 72.328125 C 53.988281 72.628906 54.183594 72.921875 54.398438 73.195312 C 54.613281 73.472656 54.84375 73.734375 55.09375 73.980469 C 55.339844 74.226562 55.605469 74.457031 55.882812 74.667969 C 56.160156 74.882812 56.453125 75.074219 56.753906 75.25 C 57.058594 75.421875 57.371094 75.578125 57.695312 75.710938 C 58.019531 75.84375 58.351562 75.953125 58.6875 76.046875 C 59.027344 76.136719 59.371094 76.203125 59.71875 76.25 C 60.0625 76.292969 60.414062 76.316406 60.761719 76.316406 L 89.121094 76.316406 C 89.472656 76.316406 89.820312 76.292969 90.167969 76.25 C 90.515625 76.203125 90.859375 76.136719 91.195312 76.046875 C 91.535156 75.957031 91.867188 75.84375 92.1875 75.710938 C 92.511719 75.578125 92.828125 75.425781 93.128906 75.25 C 93.433594 75.074219 93.726562 74.882812 94.003906 74.671875 C 94.28125 74.457031 94.542969 74.230469 94.792969 73.980469 C 95.042969 73.734375 95.273438 73.472656 95.488281 73.195312 C 95.703125 72.921875 95.898438 72.632812 96.074219 72.328125 C 96.25 72.027344 96.40625 71.714844 96.542969 71.390625 C 96.675781 71.070312 96.792969 70.738281 96.882812 70.402344 C 96.976562 70.0625 97.046875 69.722656 97.09375 69.375 C 97.140625 69.027344 97.167969 68.679688 97.171875 68.328125 C 97.171875 67.980469 97.152344 67.628906 97.109375 67.28125 C 97.066406 66.9375 97 66.59375 96.914062 66.253906 C 96.824219 65.914062 96.714844 65.582031 96.582031 65.257812 C 96.453125 64.933594 96.300781 64.621094 96.128906 64.316406 C 95.601562 63.382812 95.011719 62.488281 94.367188 61.628906 C 93.71875 60.773438 93.019531 59.964844 92.265625 59.203125 C 91.511719 58.4375 90.714844 57.726562 89.867188 57.070312 C 89.019531 56.410156 88.132812 55.8125 87.203125 55.273438 C 86.277344 54.730469 85.320312 54.253906 84.332031 53.839844 C 83.339844 53.425781 82.328125 53.082031 81.292969 52.800781 C 80.257812 52.519531 79.207031 52.308594 78.144531 52.167969 C 77.082031 52.027344 76.011719 51.957031 74.941406 51.957031 Z M 74.941406 51.957031 " fill-opacity="1" fill-rule="nonzero"/></g></svg>